<?xml version="1.0" encoding="UTF-8"?>
<svg id="Layer_1" data-name="Layer 1" xmlns="http://www.w3.org/2000/svg" viewBox="0 0 64 64">
  <defs>
    <style>
      .cls-1 {
        fill: #fff;
      }
    </style>
  </defs>
  <rect x="-10.75" y="-7.53" width="86.79" height="76.82"/>
  <path class="cls-1" d="M0,7.08l23.98,7.42c4.07,1.64,4.28,2.78-10.78,19.63,8.21-6.42,27.27-18.13,12.42-20.49-4.5-2.86,29.55-10.42,31.34-6.42-11.35,30.34-21.99,20.49-29.7,24.2,7.71,1,13.78,3.36,12.42,7.85-2.71,9.21,4.93-1.14,6.71,5.5,1.71,6.42,4.64,16.63,10.07,19.42h-30.84c.79-8.71,6-25.41.14-30.05,3.57,4.57-6.78,22.41-7.21,27.84-.36,4.35-14.35,2.21-18.56,2.28V7.08Z"/>
</svg>